<?xml version="1.0" encoding="UTF-8"?>
<svg id="Layer_1" data-name="Layer 1" xmlns="http://www.w3.org/2000/svg" xmlns:xlink="http://www.w3.org/1999/xlink" viewBox="0 0 326.42 326.42">
  <defs>
    <style>
      .cls-1 {
        fill: #683616;
      }

      .cls-2 {
        fill: #bcc6cc;
        stroke: #9da5ab;
      }

      .cls-2, .cls-3 {
        stroke-miterlimit: 10;
      }

      .cls-4 {
        fill: #7d401e;
      }

      .cls-3 {
        fill: #ebe723;
        filter: url(#drop-shadow-1);
        stroke: #d8d324;
      }

    </style>
    <filter id="drop-shadow-1" x="104.32" y="43.87" width="163.2" height="202.56" filterUnits="userSpaceOnUse">
      <feOffset dx="-2" dy="4"/>
      <feGaussianBlur result="blur" stdDeviation="4"/>
      <feFlood flood-color="#70682b" flood-opacity="1"/>
      <feComposite in2="blur" operator="in"/>
      <feComposite in="SourceGraphic"/>
    </filter>
  </defs>
  <g id="Chocolate">
    <rect id="Chocolate-2" data-name="Chocolate" class="cls-1" x="149.32" y="43.09" width="164.68" height="103.35" transform="translate(134.86 -136.05) rotate(45)"/>
    <rect id="Break" class="cls-4" x="227.2" y="13.99" width="6.27" height="164.47" transform="translate(-.57 191.06) rotate(-45)"/>
    <rect id="Break-2" data-name="Break" class="cls-4" x="203.47" y="13.76" width="6.27" height="82.75" transform="translate(99.5 -129.94) rotate(45)"/>
    <rect id="Break-3" data-name="Break" class="cls-4" x="231.82" y="44.05" width="6.27" height="92.07" transform="translate(132.51 -139.75) rotate(45)"/>
    <rect id="Break-4" data-name="Break" class="cls-4" x="262.03" y="75.42" width="6.27" height="97.71" transform="translate(165.54 -151.1) rotate(45)"/>
  </g>
  <g id="Package">
    <rect id="Package_Bottom" data-name="Package Bottom" class="cls-2" x="38.83" y="117.22" width="164.68" height="176.05" transform="translate(180.62 -25.57) rotate(45)"/>
    <path id="Package_Top" data-name="Package Top" class="cls-3" d="M247.91,176.8c-6.45-4.53-10.9-12.18-15.4-18.64-11.13-10.19-19.45-24.21-27.19-36.47-2.51-3.97-4.87-8.03-7.21-12.1-7.95-8.67-13.89-19.26-20.46-28.89-4.6-6.74-9.42-13.37-13.67-20.34-.27-.45-.52-.91-.78-1.37-.19-.14-.37-.29-.51-.47-.23-.23-.42-.47-.6-.73-.36-.43-.69-.88-.98-1.35l-3.79-3.79-34.86,34.86c.15.68.17,1.42,0,2.23-1.53,7.31-1.92,14.68-2.33,22.12-.18,3.28-.73,6.55-1.24,9.81.33,1.91.85,3.78,1.69,5.55,1.48,3.12,4.11,5.18,6.45,7.57,1.85.97,3.48,2.3,4.71,4.23,1.34,2.1,1.92,4.23,2.14,6.39,0,0,0,0,0,0,1.04,3.18.57,5.88.45,9.04,1.2,2.67,2.7,5.09,4.42,7.41,1.58.53,3.09,1.22,4.48,2.18,2.85,1.96,4.38,4.89,5.91,7.84,2.17.92,4.06,2.11,5.74,3.51,4.6,1.98,8.15,6.15,10.36,10.55.4.79.74,1.58,1.06,2.38.58.51,1.11,1.08,1.56,1.71.49.68.81,1.42.99,2.17,3.71,5.2,4.53,13.28,4.66,20.46.68.93,1.46,1.79,2.49,2.51.69.49,1.34.97,1.94,1.47,5.25,1.49,10.48,3.02,15.77,4.37,3.85.98,7.88,1.7,11.47,3.48,2.87,1.42,5.11,3.75,8.02,5.12.01,0,.02.01.03.02l43.32-43.32c-3.28-2.71-6.05-6.02-8.66-9.49Z"/>
  </g>
</svg>