<?xml version="1.0" encoding="UTF-8"?>
<svg id="Layer_1" data-name="Layer 1" xmlns="http://www.w3.org/2000/svg" viewBox="0 0 550.5 180">
  <defs>
    <style>
      .cls-1 {
        stroke: #000;
      }

      .cls-1, .cls-2 {
        fill: #502b13;
      }

      .cls-1, .cls-2, .cls-3, .cls-4 {
        stroke-miterlimit: 10;
        stroke-width: 2px;
      }

      .cls-2 {
        stroke: #010101;
      }

      .cls-3 {
        fill: #bc6d34;
      }

      .cls-3, .cls-4 {
        stroke: #502b13;
      }

      .cls-4 {
        fill: #9e4222;
      }
    </style>
  </defs>
  <g id="Stick_2" data-name="Stick 2">
    <path id="Side" class="cls-4" d="M464.62,73.62L38.13,150.7s-55.82-8.56-30.58-49.13c0,0,436.78-62.65,449.4-64.01,0,0-16.35,19.89,7.66,36.06Z"/>
    <path id="Top" class="cls-4" d="M456.95,37.56L7.55,101.57s-9.57-24.1,20.79-28.33L455.37,10.16s-6.35,23.12,1.58,27.4Z"/>
    <path id="Light_Face" data-name="Light Face" class="cls-3" d="M458.73,37.34s-19.92,19.17,7.75,35.92c0,0,36.65.3,29.44-47.05,0,0-1.63-24.28-38.84-16.29,0,0-6.93,18.37.28,27.53"/>
    <path id="Dark_Face" data-name="Dark Face" class="cls-2" d="M468.64,38.89s-12.28,8.38-2.92,16.17c0,0,18.32,7.01,19.68-20.07,0,0-1.36-19.87-18.51-14.03,0,0-10.33,5.85,1.75,17.93Z"/>
  </g>
  <g id="Stick_1" data-name="Stick 1">
    <path id="Side-2" data-name="Side" class="cls-4" d="M489.33,140.74l10.02,33.91L45.78,49.95s-20.78-22.24,6.2-33.18l437.35,123.97Z"/>
    <path id="Top-2" data-name="Top" class="cls-4" d="M540.54,117.04s-34.57-8.39-41.2,23.7l-11.3-.36L58.41,18.59s7.06-27.35,49.35-13.85l432.79,112.3Z"/>
    <path id="Light_Face-2" data-name="Light Face" class="cls-3" d="M489.92,140.95c-.85.76-.26,2.08.44,4.55,1.61,5.39,3.69,12.42,5.39,18.1.82,2.77,1.61,5.41,2.41,8.09,1.04,3.46.97,3.21,2.74,4.31,16.56,9.55,34.59-5.49,42.78-19.31,9.88-15.6,6.77-36.01-6.07-40.29-3.42-.78-5.35-.5-9.15-.48-6.86,0-19.57,3.56-24.54,12.98-1.35,2.36-4.53,8.6-2.59,9.99,1.63.63,3.89-.92,5.52-1.13,1.33-.23,1.5,1,1.61,2.03.33,3.4.95,10.03,4.8,11.75,5,1.91,9.65-3.44,13.27-6.02-.27.25-.93.75-1.38.81-1.48.07-1.26-2.49-2.53-3.42-3.12-2.03-5.05,6.94-8.06,4.17-.77-.66-1.45-1.9-1.78-3.61-.51-2.91-.38-6.35.42-9.1,1.28-4.28,7.36-6.39,11.6-6.89,8.25-.41,7.81,10.39,7.48,16.24-.4,3.86-.03,7.38-2.21,10.14-2.78,3.84-7.28,6.43-11.8,7.77-3.74,1.13-6,1.06-7.89-1.94-2.05-3.17-5.68-9.45-6.73-13.98-.66-2.74-.53-4.87-1.95-5.8-2.43-1.39-6.66-.39-9.52.13-.78.19-1.59.4-2.19.87l-.07.06Z"/>
    <path id="Dark_Face-2" data-name="Dark Face" class="cls-1" d="M507.42,138.61c-1.84-1.54-4.41.56-3.94,2.66.47,5.38,3.68,21.19,13.84,20.45,2.56-.01,5.4-1.02,7.34-1.9,2.07-.9,3.23-1.39,5.15-5.17,2.33-5.15,2.7-10.64,2.59-16.3.11-5.13-1.05-9.08-6.04-11.06-6.6-1.95-14.13,5.33-13.47,11.96.3,3.01.41,7.4,2.85,7.73,2.47-.41,3.4-3.73,5-5.28,3.53-3.38,3.15,5.52,2.17,7.12-.23.5-.53.91-.9,1.3-3.76,3.86-8.5,5.08-11.23-1.06-.84-1.79-1.32-3.93-1.66-6.12-.21-1.4-.63-3.48-1.59-4.26l-.1-.09Z"/>
  </g>
</svg>