<?xml version="1.0" encoding="UTF-8"?>
<svg id="Layer_1" data-name="Layer 1" xmlns="http://www.w3.org/2000/svg" xmlns:xlink="http://www.w3.org/1999/xlink" viewBox="0 0 451.44 353.15">
  <defs>
    <style>
      .cls-1 {
        filter: url(#drop-shadow-2);
      }

      .cls-2 {
        fill: #e9decf;
        stroke: #d7cfc5;
      }

      .cls-2, .cls-3, .cls-4 {
        stroke-miterlimit: 10;
      }

      .cls-5 {
        filter: url(#drop-shadow-1);
      }

      .cls-3 {
        fill: #efe1a7;
        stroke: #e2d6a1;
      }

      .cls-6 {
        fill: #352c14;
      }

      .cls-4 {
        fill: #51441a;
        stroke: #383015;
      }
    </style>
    <filter id="drop-shadow-1" x="188.02" y="175.72" width="124.32" height="120.96" filterUnits="userSpaceOnUse">
      <feOffset dx="0" dy="0"/>
      <feGaussianBlur result="blur" stdDeviation="5"/>
      <feFlood flood-color="#ead9b0" flood-opacity=".75"/>
      <feComposite in2="blur" operator="in"/>
      <feComposite in="SourceGraphic"/>
    </filter>
    <filter id="drop-shadow-2" x="224.74" y="208.12" width="56.64" height="55.92" filterUnits="userSpaceOnUse">
      <feOffset dx="0" dy="0"/>
      <feGaussianBlur result="blur-2" stdDeviation="5"/>
      <feFlood flood-color="#5f4b1d" flood-opacity=".75"/>
      <feComposite in2="blur-2" operator="in"/>
      <feComposite in="SourceGraphic"/>
    </filter>
  </defs>
  <path id="Stick_2" data-name="Stick 2" class="cls-6" d="M224.23,116.71c-23.8,30.78-91.2,58.73-96.43,60.87-.21.09-.43.15-.66.2-58.38,12.78-104.62,49.35-120.19,62.9-2.73,2.37-7,.41-6.95-3.24.38-25.17,40.01-41.17,58.42-55.47,20.38-15.83,119.46-46.43,142.64-70.44s75.51-43.54,143.04-69.58c44.26-17.07,61.22-32.04,67.66-40.33,2.17-2.79,6.56-1.8,7.39,1.66,9.17,38.25-73.45,65.12-73.45,65.12-66.4,21.11-121.46,48.31-121.46,48.31"/>
  <path id="Stick_1" data-name="Stick 1" class="cls-6" d="M432.83,1.52c.78-1.6,2.87-2.01,4.23-.86,8.73,7.35,38.83,38.79-27.6,78.8-76.1,45.83-200.2,99.45-268.08,141.39-67.89,41.94-69.18,92.53-74.8,98.15-5.62,5.62-45.83-28.54,43.24-103.77,89.07-75.24,139.23-83.45,195.87-115.02,56.64-31.56,68.32-27.67,99.02-48,0,0,37.77-15.91,26.86-42.44,0,0-.4-4.86,1.27-8.25Z"/>
  <g id="Flower">
    <g id="Petels">
      <path id="Petal_1" data-name="Petal 1" class="cls-2" d="M246.13,243.44c-12.55-15.42-59.12-79.5-8.05-125.24,1.15-1.03,2.81-1.29,4.2-.62,13.51,6.49,79.71,43.9,9.7,125.92-1.54,1.8-4.35,1.78-5.85-.06Z"/>
      <path id="Petal_2" data-name="Petal 2" class="cls-2" d="M245.5,246.03s32.79-94.55,118.52-48.93c0,0-1.48,106.3-118.52,48.93Z"/>
      <path id="Petal_3" data-name="Petal 3" class="cls-2" d="M249.16,248.36c18.64,2.15,108.9,17.08,68.37,101.75-.45.94-1.36,1.61-2.41,1.78-11.76,1.88-80.26,8.27-69.57-100.72.17-1.74,1.81-3.01,3.61-2.8Z"/>
      <path id="Petal_4" data-name="Petal 4" class="cls-2" d="M250.82,246.67c-.49,22.02-7.85,103.75-91.06,84.86-1.78-.4-3.21-1.7-3.7-3.42-3.97-14.06-15.92-77.58,89.36-86.38,2.95-.25,5.46,2.05,5.4,4.94Z"/>
      <path id="Petal_5" data-name="Petal 5" class="cls-2" d="M245.17,246.21c-16.08,4.42-110.92,26.82-118.21-57.15-.09-1.03.49-2,1.43-2.42,12.27-5.51,93.32-37.84,118.5,56.61.34,1.29-.43,2.61-1.71,2.96Z"/>
    </g>
    <g id="Center" class="cls-5">
      <path id="Center_1" data-name="Center 1" class="cls-3" d="M248.26,237.1c-3.15-7.85-6.36-23.51,4.7-44.1,1.15-2.15,4.33-2.26,5.61-.17,3.86,6.26,8.32,20.3-4.45,44.58-1.26,2.39-4.87,2.19-5.87-.31Z"/>
      <path id="Center_2" data-name="Center 2" class="cls-3" d="M251.48,234.18c2.48-11.37,8.91-31.42,23.34-30.86,1.82.07,2.92,2.49,2.48,5.29-1.23,7.7-5.71,22.61-22.12,30.97-2.49,1.27-4.52-1.65-3.7-5.41Z"/>
      <path id="Center_3" data-name="Center 3" class="cls-3" d="M252.57,233.76c6.28-8.58,20.2-22.12,41.22-12.79,1.84.82,2.94,2.63,2.85,4.54-.32,6.71-5.05,21.03-40.68,15.66-3.68-.55-5.49-4.53-3.38-7.41Z"/>
      <path id="Center_4" data-name="Center 4" class="cls-3" d="M253.9,236.62c12.6-1.29,35.21-.91,39.03,17.66.21,1.03.07,2.09-.45,3-2.45,4.26-12.05,14.24-41.06-13.41-2.61-2.49-1.11-6.88,2.49-7.25Z"/>
      <path id="Center_5" data-name="Center 5" class="cls-3" d="M250.22,237.24s35.94,36.08,26.92,41.88c-9.02,5.81-28.82-27.05-26.92-41.88Z"/>
      <path id="Center_6" data-name="Center 6" class="cls-3" d="M251.97,239.18s6.6,36.92,2.31,41.02-32.96-8.15-2.31-41.02Z"/>
      <path id="Center_7" data-name="Center 7" class="cls-3" d="M251.8,241.82c-6.55,10.9-24.43,34.87-46.99,17.88-.6-.45-.99-1.14-1.11-1.91-.66-4.2,1.03-17.16,45.55-20.54,2.32-.18,3.81,2.47,2.55,4.57Z"/>
      <path id="Center_8" data-name="Center 8" class="cls-3" d="M247.45,240.82c-10.34,1.5-34.68,2.12-39.93-23.85-.36-1.8,1.31-3.4,3.16-2.99,7.01,1.52,22.8,6.56,38.32,22.58,1.45,1.5.55,3.96-1.56,4.26Z"/>
      <path id="Center_9" data-name="Center 9" class="cls-3" d="M247.53,239.01c-7.9-2.37-24.48-11.05-21.06-41.96.18-1.66,1.79-2.83,3.42-2.42,5.55,1.38,17.05,8.28,21.2,41.35.25,1.99-1.63,3.61-3.56,3.03Z"/>
    </g>
    <g id="Inner_Center" data-name="Inner Center" class="cls-1">
      <path id="Center_1-2" data-name="Center 1" class="cls-4" d="M252.53,236.44c-.87-2.16-1.75-6.47,1.29-12.13.32-.59,1.19-.62,1.54-.05,1.06,1.72,2.29,5.58-1.22,12.27-.35.66-1.34.6-1.61-.08Z"/>
      <path id="Center_2-2" data-name="Center 2" class="cls-4" d="M253.42,235.63c.68-3.13,2.45-8.64,6.42-8.49.5.02.8.68.68,1.46-.34,2.12-1.57,6.22-6.08,8.52-.68.35-1.24-.45-1.02-1.49Z"/>
      <path id="Center_3-2" data-name="Center 3" class="cls-4" d="M253.72,235.52c1.73-2.36,5.56-6.09,11.34-3.52.51.22.81.72.78,1.25-.09,1.85-1.39,5.79-11.19,4.31-1.01-.15-1.51-1.25-.93-2.04Z"/>
      <path id="Center_4-2" data-name="Center 4" class="cls-4" d="M254.09,236.31c3.47-.36,9.69-.25,10.74,4.86.06.28.02.58-.12.83-.67,1.17-3.32,3.92-11.3-3.69-.72-.69-.31-1.89.68-2Z"/>
      <path id="Center_5-2" data-name="Center 5" class="cls-4" d="M253.07,236.48s9.89,9.93,7.41,11.52-7.93-7.44-7.41-11.52Z"/>
      <path id="Center_6-2" data-name="Center 6" class="cls-4" d="M253.56,237.01s1.82,10.16.64,11.29-9.07-2.24-.64-11.29Z"/>
      <path id="Center_7-2" data-name="Center 7" class="cls-4" d="M253.51,237.74c-1.8,3-6.72,9.59-12.93,4.92-.16-.12-.27-.31-.31-.52-.18-1.16.28-4.72,12.53-5.65.64-.05,1.05.68.7,1.26Z"/>
      <path id="Center_8-2" data-name="Center 8" class="cls-4" d="M252.31,237.46c-2.85.41-9.54.58-10.98-6.56-.1-.5.36-.93.87-.82,1.93.42,6.27,1.8,10.54,6.21.4.41.15,1.09-.43,1.17Z"/>
      <path id="Center_9-2" data-name="Center 9" class="cls-4" d="M252.33,236.96c-2.17-.65-6.74-3.04-5.79-11.54.05-.46.49-.78.94-.67,1.53.38,4.69,2.28,5.83,11.38.07.55-.45.99-.98.83Z"/>
    </g>
  </g>
</svg>